<svg width="340" height="340" viewBox="0 0 340 340" fill="none" xmlns="http://www.w3.org/2000/svg">
<circle cx="170" cy="170" r="170" fill="#262626"/>
<mask id="mask0_2041_844" style="mask-type:alpha" maskUnits="userSpaceOnUse" x="0" y="0" width="340" height="340">
<circle cx="170" cy="170" r="170" fill="#F4F2E5"/>
</mask>
<g mask="url(#mask0_2041_844)">
<path d="M93.5679 296.373C91.601 295.912 90.0275 295.123 88.9129 294.465C89.2407 293.149 89.3718 292.096 89.6996 291.109C97.3706 267.353 105.042 243.531 112.582 219.709C124.449 182.068 136.119 144.427 147.855 106.721C148.183 105.734 148.38 104.681 148.773 103.167C146.216 103.825 144.118 104.352 142.085 104.944C123.727 110.208 105.435 115.67 87.8638 123.435C82.5531 125.739 77.5047 128.568 72.3907 131.332C69.637 132.78 67.6045 135.083 66.031 137.847C64.1952 141.071 64.4574 144.164 66.6211 147.06C69.2436 150.482 72.7185 152.127 74.4232 152.851C81.5697 155.878 88.3228 158.049 94.158 160.155C100.059 162.261 103.927 163.84 103.73 164.959C103.665 165.551 102.55 165.88 101.96 166.078C99.7965 166.736 97.8296 166.078 97.5673 166.012C82.8154 162.985 68.7847 158.049 56.7864 148.442C54.4261 146.533 52.3281 144.164 50.6234 141.729C47.9353 137.913 47.9353 133.833 50.4267 129.687C52.3281 126.594 54.8195 124.291 57.8355 122.383C65.1786 117.776 73.1775 114.42 81.1763 111.261C100.846 103.562 121.039 97.7053 141.364 92.2435C145.036 91.2564 148.707 90.2693 152.903 89.1506C155.657 79.4771 158.608 69.6063 161.165 59.6696C163.787 49.7329 166.016 39.6646 168.573 29.0041C169.753 28.346 171.655 27.5563 174.081 27.1615C175.064 27.0299 176.965 26.8325 179.326 27.1615C182.014 27.5563 184.112 28.5434 185.423 29.2673C185.095 31.6363 184.964 33.8079 184.44 35.9137C181.227 48.8774 177.883 61.8412 174.605 74.8049C173.818 77.832 172.966 80.8591 171.983 84.4126C180.899 82.5042 189.226 80.6616 197.88 78.8191C200.372 67.7637 202.798 56.7083 205.42 45.1923C210.665 42.8233 216.238 42.9549 222.27 45.4555C222.074 47.3639 222.139 49.0748 221.746 50.7858C220.303 57.6296 218.73 64.4734 217.222 71.3172C216.96 72.4359 216.763 73.6204 216.435 75.1997C218.336 74.8707 221.811 74.2785 226.073 73.6204C254.659 68.8824 283.901 64.3418 316.224 60.5909C327.632 59.2747 332.287 59.0773 338.384 58.8799C346.908 58.6167 359.365 59.1431 375.035 63.2889C375.953 65.7237 376.87 68.0927 377.788 70.5275C375.362 69.8695 371.363 68.9482 366.38 68.0927C347.563 64.9999 334.254 67.2372 286.326 74.8707C273.869 76.8449 268.362 77.7004 259.576 79.2139C246.595 81.4513 233.613 83.8203 220.631 86.1893C218.205 86.65 215.779 87.1764 213.354 87.6371C213.026 88.6899 212.698 89.5454 212.501 90.3351C204.83 116.986 197.094 143.572 189.488 170.289C182.67 194.177 175.916 218.13 169.426 242.149C167.655 248.796 166.934 255.705 165.885 262.483C165.426 265.51 165.754 268.537 166.934 272.025C168.442 270.972 169.819 270.117 170.934 269.13C176.572 264.128 182.342 259.193 187.718 253.928C197.094 244.716 206.338 235.371 215.32 225.829C218.468 222.539 222.074 221.157 226.27 220.696C228.237 220.499 230.204 220.499 232.17 220.696C233.416 220.828 234.531 221.486 236.039 222.013C235.449 223 235.186 223.723 234.727 224.25C220.107 239.188 206.01 254.652 190.078 268.274C184.636 272.88 178.932 277.026 171.851 278.935C166.672 280.316 161.427 280.251 156.247 279.856C152.248 279.527 149.429 277.092 148.445 273.012C147.33 268.537 147.527 264.062 148.117 259.588C149.953 246.097 153.559 233.002 157.296 219.973C169.229 178.91 181.227 137.913 193.16 96.8499C193.619 95.3363 193.947 93.757 194.537 91.5196C185.358 93.6912 176.834 95.7312 168.114 97.837C148.511 163.774 127.53 229.185 106.156 294.728C104.976 295.32 103.337 295.978 101.37 296.439C100.124 296.636 97.1739 297.229 93.5679 296.373Z" fill="#F4F2E5"/>
</g>
</svg>
