<svg width="989" height="571" viewBox="0 0 989 571" fill="none" xmlns="http://www.w3.org/2000/svg">
<path d="M176.989 311H0.949219V245.358L176.989 0.692383H260.534V245.358H332.143V311H260.534V418.415H176.989V311ZM72.5587 245.358H176.989V96.1717L72.5587 245.358Z" fill="#262626"/>
<path d="M832.989 311H656.949V245.358L832.989 0.692383H916.534V245.358H988.143V311H916.534V418.415H832.989V311ZM728.559 245.358H832.989V96.1717L728.559 245.358Z" fill="#262626"/>
<path d="M297.799 567C293.976 567 292.974 565.362 294.795 562.084L336.58 489.166L273.22 380.744C272.309 379.287 272.127 378.104 272.673 377.193C273.22 376.283 274.312 375.828 275.951 375.828H317.189C319.556 375.828 321.286 376.738 322.378 378.559L361.159 446.562L400.213 378.559C401.305 376.738 402.944 375.828 405.129 375.828H446.367C448.006 375.828 449.098 376.283 449.645 377.193C450.191 378.104 450.1 379.287 449.371 380.744L343.953 564.269C342.861 566.09 341.131 567 338.764 567H297.799Z" fill="#262626"/>
<path d="M478.348 567C475.617 567 474.252 565.544 474.252 562.631V380.198C474.252 377.284 475.617 375.828 478.348 375.828H620.362C623.275 375.828 624.732 377.284 624.732 380.198V562.631C624.732 565.544 623.275 567 620.362 567H581.308C578.577 567 577.212 565.544 577.212 562.631V417.613H521.772V562.631C521.772 565.544 520.315 567 517.402 567H478.348Z" fill="#262626"/>
<path d="M751.951 570.551C724.641 570.551 701.245 561.174 681.763 542.421C662.464 523.486 652.814 500.09 652.814 472.233C652.814 444.377 662.464 420.981 681.763 402.046C701.245 383.111 724.641 373.643 751.951 373.643C778.897 373.643 801.565 383.293 819.954 402.592C821.41 404.049 821.228 405.869 819.407 408.054L795.101 433.999C793.645 436.184 791.824 436.366 789.639 434.545C778.715 425.078 766.152 420.344 751.951 420.344C737.385 420.344 725.187 425.26 715.355 435.091C705.705 444.923 700.88 457.304 700.88 472.233C700.88 487.163 705.705 499.544 715.355 509.375C725.187 519.025 737.385 523.85 751.951 523.85C766.152 523.85 778.715 519.116 789.639 509.649C791.642 508.01 793.554 508.192 795.374 510.195L819.407 536.14C821.228 538.142 821.41 539.872 819.954 541.329C801.565 560.81 778.897 570.551 751.951 570.551Z" fill="#262626"/>
</svg>
