<svg width="220" height="220" viewBox="0 0 220 220" fill="none" xmlns="http://www.w3.org/2000/svg">
<g clip-path="url(#clip0_2041_1080)">
<path fill-rule="evenodd" clip-rule="evenodd" d="M110 220C170.751 220 220 170.751 220 110C220 49.2487 170.751 0 110 0C49.2487 0 0 49.2487 0 110C0 170.751 49.2487 220 110 220ZM117.235 136.464C117.233 139.038 117.23 141.612 117.23 144.186H117.253C117.253 146.742 117.25 149.299 117.247 151.855C117.24 159.159 117.232 166.461 117.287 173.76C117.299 175.525 116.794 176.115 115.001 176.092C107.645 176.006 100.289 175.994 92.9325 176.097C90.933 176.126 90.4116 175.45 90.4174 173.514C90.4619 158.346 90.458 143.181 90.454 128.015C90.4529 123.681 90.4517 119.347 90.4517 115.013C90.4479 113.191 89.5102 112.28 87.6387 112.28C86.9521 112.279 86.2658 112.275 85.5798 112.27C83.6215 112.258 81.6655 112.247 79.7095 112.297C78.4663 112.332 77.9278 112.011 77.9392 110.642C77.9908 104.139 77.9851 97.6423 77.9392 91.1396C77.9278 89.8162 78.4377 89.3751 79.6981 89.3923C80.9235 89.4119 82.1488 89.4031 83.3738 89.3943C85.0066 89.3827 86.6387 89.371 88.2689 89.4266C89.9017 89.4839 90.5319 89.0141 90.4804 87.2667C90.3601 83.1303 90.3773 78.9824 90.4632 74.8402C90.5892 68.5725 92.0444 62.6714 95.8658 57.5667C100.753 51.0412 107.708 48.5834 115.482 48.274C119.665 48.106 123.855 48.1429 128.046 48.1799C130.428 48.2009 132.81 48.2219 135.191 48.2053C136.68 48.1938 137.213 48.7725 137.202 50.2219C137.162 56.3693 137.156 62.511 137.202 68.6527C137.213 70.1537 136.589 70.6407 135.145 70.6178C131.216 70.5605 127.294 70.5834 123.365 70.6063L123.36 70.6063C119.206 70.6292 117.356 72.3995 117.264 76.5818C117.226 78.3281 117.235 80.0769 117.244 81.8259C117.254 83.7207 117.263 85.6156 117.213 87.5074C117.167 89.0772 117.814 89.4324 119.229 89.4209C121.554 89.401 123.879 89.4059 126.203 89.4109C129.235 89.4173 132.267 89.4237 135.3 89.3751C137.076 89.3464 137.511 90.0339 137.322 91.661C136.594 97.9631 135.878 104.271 135.3 110.59C135.162 112.08 134.543 112.309 133.283 112.297C131.323 112.276 129.363 112.281 127.405 112.287C124.721 112.295 122.038 112.303 119.355 112.24C117.665 112.2 117.184 112.704 117.195 114.4C117.251 121.755 117.243 129.109 117.235 136.464Z" fill="#262626"/>
</g>
<defs>
<clipPath id="clip0_2041_1080">
<rect width="220" height="220" fill="white"/>
</clipPath>
</defs>
</svg>
