<svg width="220" height="220" viewBox="0 0 220 220" fill="none" xmlns="http://www.w3.org/2000/svg">
<g clip-path="url(#clip0_2041_1091)">
<path d="M66.149 110.189C66.149 107.808 66.1458 105.426 66.1426 103.045C66.1362 98.282 66.1299 93.5191 66.149 88.7563C66.2062 75.6021 75.4302 66.4583 88.6474 66.4469C102.89 66.4354 117.133 66.4354 131.376 66.4469C144.587 66.4583 153.805 75.6021 153.84 88.7849C153.88 103.073 153.88 117.362 153.84 131.651C153.805 144.725 144.627 153.92 131.565 153.96C117.179 154.006 102.793 154.006 88.4068 153.96C75.4531 153.92 66.2292 144.73 66.1547 131.834C66.1273 126.899 66.1347 121.962 66.1421 117.025V117.023C66.1455 114.744 66.149 112.466 66.149 110.189ZM81.5318 110.143C81.4974 125.939 94.1646 138.583 110.046 138.6C125.635 138.617 138.377 125.996 138.451 110.458C138.531 94.5886 125.956 81.8584 110.143 81.7896C94.2964 81.7209 81.5604 94.3365 81.5318 110.143ZM138.657 88.8193C142.502 88.8078 145.635 85.7198 145.681 81.8985C145.727 78.0084 142.542 74.7485 138.657 74.7141C134.802 74.674 131.507 77.9396 131.507 81.7896C131.507 85.6912 134.704 88.8308 138.657 88.8136V88.8193Z" fill="url(#paint0_linear_2041_1091)"/>
<path d="M127.273 110.149C127.302 119.791 119.654 127.445 110 127.44C100.346 127.44 92.6979 119.774 92.7323 110.143C92.7667 100.593 100.335 93.0131 109.903 92.9615C119.568 92.9099 127.251 100.507 127.279 110.149H127.273Z" fill="url(#paint1_linear_2041_1091)"/>
<path d="M220 110C220 170.751 170.751 220 110 220C49.2487 220 0 170.751 0 110C0 49.2487 49.2487 0 110 0C170.751 0 220 49.2487 220 110ZM19.4792 110.458C19.4792 164.779 53.1008 205.964 107.422 205.964C161.743 205.964 199.089 164.321 199.089 110C199.089 55.6792 164.464 22.9167 110.143 22.9167C55.8224 22.9167 19.4792 56.1375 19.4792 110.458Z" fill="url(#paint2_linear_2041_1091)"/>
<path fill-rule="evenodd" clip-rule="evenodd" d="M19.4792 110.458C19.4792 164.779 53.1008 205.964 107.422 205.964C161.743 205.964 199.089 164.321 199.089 110C199.089 55.6792 164.464 22.9167 110.143 22.9167C55.8224 22.9167 19.4792 56.1375 19.4792 110.458ZM88.0917 55.2635C95.3906 55.2463 102.695 55.2635 109.994 55.2635V55.2693C117.368 55.2693 124.741 55.2406 132.115 55.2693C150.459 55.3437 164.966 69.7756 165.029 88.0631C165.074 102.781 165.069 117.5 165.029 132.218C164.977 150.637 150.494 165.074 132.017 165.126C117.345 165.166 102.667 165.166 87.9943 165.126C69.5234 165.074 55.0172 150.62 54.9714 132.224C54.937 117.574 54.9427 102.93 54.9714 88.2808C55.0057 69.7412 69.4833 55.3208 88.0917 55.2635Z" fill="url(#paint3_linear_2041_1091)"/>
<path fill-rule="evenodd" clip-rule="evenodd" d="M66.1426 103.045C66.1362 98.282 66.1299 93.5191 66.149 88.7563C66.2062 75.6021 75.4302 66.4583 88.6474 66.4469C102.89 66.4354 117.133 66.4354 131.376 66.4469C144.587 66.4583 153.805 75.6021 153.84 88.7849C153.88 103.073 153.88 117.362 153.84 131.651C153.805 144.725 144.627 153.92 131.565 153.96C117.179 154.006 102.793 154.006 88.4068 153.96C75.4531 153.92 66.2292 144.73 66.1547 131.834C66.1273 126.899 66.1347 121.962 66.1421 117.025V117.023C66.1455 114.744 66.149 112.466 66.149 110.189C66.149 107.808 66.1458 105.426 66.1426 103.045ZM81.5318 110.143C81.4974 125.939 94.1646 138.583 110.046 138.6C125.635 138.617 138.377 125.996 138.451 110.458C138.531 94.5886 125.956 81.8584 110.143 81.7896C94.2964 81.7209 81.5604 94.3365 81.5318 110.143ZM110 127.44C119.654 127.445 127.302 119.791 127.273 110.149H127.279C127.251 100.507 119.568 92.9099 109.903 92.9615C100.335 93.0131 92.7667 100.593 92.7323 110.143C92.6979 119.774 100.346 127.44 110 127.44ZM145.681 81.8985C145.635 85.7198 142.502 88.8078 138.657 88.8193V88.8136C134.704 88.8308 131.507 85.6912 131.507 81.7896C131.507 77.9396 134.802 74.674 138.657 74.7141C142.542 74.7485 145.727 78.0084 145.681 81.8985Z" fill="url(#paint4_linear_2041_1091)"/>
</g>
<defs>
<linearGradient id="paint0_linear_2041_1091" x1="32" y1="213" x2="208" y2="38" gradientUnits="userSpaceOnUse">
<stop stop-color="#FADB80"/>
<stop offset="0.191201" stop-color="#F1A73E"/>
<stop offset="0.363806" stop-color="#EF5A2F"/>
<stop offset="0.541667" stop-color="#E9423A"/>
<stop offset="0.653875" stop-color="#CA1C63"/>
<stop offset="0.856413" stop-color="#9315A7"/>
<stop offset="1" stop-color="#3440EA"/>
</linearGradient>
<linearGradient id="paint1_linear_2041_1091" x1="32" y1="213" x2="208" y2="38" gradientUnits="userSpaceOnUse">
<stop stop-color="#FADB80"/>
<stop offset="0.191201" stop-color="#F1A73E"/>
<stop offset="0.363806" stop-color="#EF5A2F"/>
<stop offset="0.541667" stop-color="#E9423A"/>
<stop offset="0.653875" stop-color="#CA1C63"/>
<stop offset="0.856413" stop-color="#9315A7"/>
<stop offset="1" stop-color="#3440EA"/>
</linearGradient>
<linearGradient id="paint2_linear_2041_1091" x1="32" y1="213" x2="208" y2="38" gradientUnits="userSpaceOnUse">
<stop stop-color="#FADB80"/>
<stop offset="0.191201" stop-color="#F1A73E"/>
<stop offset="0.363806" stop-color="#EF5A2F"/>
<stop offset="0.541667" stop-color="#E9423A"/>
<stop offset="0.653875" stop-color="#CA1C63"/>
<stop offset="0.856413" stop-color="#9315A7"/>
<stop offset="1" stop-color="#3440EA"/>
</linearGradient>
<linearGradient id="paint3_linear_2041_1091" x1="32" y1="213" x2="208" y2="38" gradientUnits="userSpaceOnUse">
<stop stop-color="#FADB80"/>
<stop offset="0.191201" stop-color="#F1A73E"/>
<stop offset="0.363806" stop-color="#EF5A2F"/>
<stop offset="0.541667" stop-color="#E9423A"/>
<stop offset="0.653875" stop-color="#CA1C63"/>
<stop offset="0.856413" stop-color="#9315A7"/>
<stop offset="1" stop-color="#3440EA"/>
</linearGradient>
<linearGradient id="paint4_linear_2041_1091" x1="32" y1="213" x2="208" y2="38" gradientUnits="userSpaceOnUse">
<stop stop-color="#FADB80"/>
<stop offset="0.191201" stop-color="#F1A73E"/>
<stop offset="0.363806" stop-color="#EF5A2F"/>
<stop offset="0.541667" stop-color="#E9423A"/>
<stop offset="0.653875" stop-color="#CA1C63"/>
<stop offset="0.856413" stop-color="#9315A7"/>
<stop offset="1" stop-color="#3440EA"/>
</linearGradient>
<clipPath id="clip0_2041_1091">
<rect width="220" height="220" fill="white"/>
</clipPath>
</defs>
</svg>
