<svg width="57" height="57" viewBox="0 0 57 57" fill="none" xmlns="http://www.w3.org/2000/svg">
<circle cx="28.5" cy="28.5" r="28.5" fill="#FDC83C"/>
<mask id="mask0_0_5" style="mask-type:alpha" maskUnits="userSpaceOnUse" x="0" y="0" width="57" height="57">
<circle cx="28.5" cy="28.5" r="28.5" fill="#F4F2E5"/>
</mask>
<g mask="url(#mask0_0_5)">
<path d="M15.6846 49.6865C15.3549 49.6093 15.0911 49.4769 14.9042 49.3666C14.9592 49.1459 14.9811 48.9694 15.0361 48.8039C16.3221 44.8213 17.6081 40.8277 18.8722 36.8341C20.8617 30.5237 22.8182 24.2133 24.7857 17.8919C24.8406 17.7264 24.8736 17.5499 24.9396 17.2961C24.5109 17.4065 24.1592 17.4947 23.8184 17.594C20.7408 18.4766 17.6741 19.3922 14.7283 20.694C13.838 21.0802 12.9917 21.5545 12.1343 22.0179C11.6727 22.2606 11.3319 22.6467 11.0681 23.1101C10.7604 23.6506 10.8043 24.1692 11.167 24.6546C11.6067 25.2282 12.1893 25.504 12.4751 25.6254C13.6731 26.1329 14.8053 26.4969 15.7835 26.85C16.7728 27.203 17.4213 27.4678 17.3883 27.6553C17.3773 27.7546 17.1905 27.8098 17.0915 27.8429C16.7288 27.9532 16.3991 27.8429 16.3551 27.8318C13.882 27.3244 11.5298 26.4969 9.5183 24.8862C9.1226 24.5663 8.77087 24.1692 8.48509 23.761C8.03443 23.1211 8.03443 22.4371 8.45211 21.7421C8.77087 21.2236 9.18855 20.8374 9.69417 20.5175C10.9252 19.7453 12.2662 19.1826 13.6072 18.6531C16.9047 17.3623 20.2901 16.3805 23.6975 15.4648C24.313 15.2993 24.9286 15.1338 25.632 14.9463C26.0937 13.3246 26.5883 11.6697 27.017 10.0039C27.4566 8.33802 27.8304 6.6501 28.259 4.8629C28.4569 4.75258 28.7756 4.62019 29.1823 4.554C29.3472 4.53193 29.666 4.49884 30.0617 4.554C30.5123 4.62019 30.8641 4.78567 31.0839 4.90703C31.0289 5.30418 31.0069 5.66824 30.919 6.02127C30.3804 8.19461 29.8198 10.3679 29.2703 12.5413C29.1384 13.0488 28.9955 13.5562 28.8306 14.152C30.3255 13.832 31.7214 13.5231 33.1723 13.2142C33.59 11.3608 33.9967 9.50743 34.4363 7.57681C35.3157 7.17965 36.2499 7.20171 37.2612 7.62093C37.2282 7.94087 37.2392 8.2277 37.1732 8.51454C36.9314 9.66188 36.6676 10.8092 36.4148 11.9566C36.3709 12.1441 36.3379 12.3427 36.2829 12.6075C36.6017 12.5523 37.1842 12.453 37.8987 12.3427C42.691 11.5484 47.5933 10.7872 53.0122 10.1583C54.9247 9.93769 55.7051 9.90459 56.7274 9.87149C58.1563 9.82736 60.2447 9.91562 62.8717 10.6106C63.0256 11.0188 63.1794 11.416 63.3333 11.8242C62.9266 11.7139 62.2562 11.5594 61.4208 11.416C58.2662 10.8975 56.0349 11.2726 48 12.5523C45.9116 12.8833 44.9883 13.0267 43.5154 13.2804C41.3391 13.6555 39.1627 14.0527 36.9864 14.4498C36.5797 14.5271 36.173 14.6153 35.7663 14.6925C35.7114 14.8691 35.6564 15.0125 35.6234 15.1449C34.3374 19.6129 33.0404 24.0699 31.7654 28.5489C30.6222 32.5536 29.4901 36.5693 28.4019 40.596C28.1052 41.7103 27.9842 42.8687 27.8084 44.005C27.7314 44.5124 27.7864 45.0199 27.9842 45.6046C28.2371 45.4281 28.4679 45.2847 28.6547 45.1192C29.6 44.2808 30.5673 43.4534 31.4686 42.5708C33.0404 41.0263 34.5902 39.4597 36.0961 37.8601C36.6237 37.3085 37.2282 37.0768 37.9317 36.9995C38.2614 36.9665 38.5912 36.9665 38.9209 36.9995C39.1298 37.0216 39.3166 37.1319 39.5694 37.2202C39.4705 37.3857 39.4265 37.507 39.3496 37.5953C36.8985 40.0996 34.5353 42.6921 31.8643 44.9758C30.952 45.748 29.9957 46.4431 28.8086 46.763C27.9403 46.9947 27.0609 46.9836 26.1926 46.9175C25.5221 46.8623 25.0495 46.4541 24.8846 45.7701C24.6977 45.0199 24.7307 44.2697 24.8296 43.5196C25.1374 41.258 25.742 39.0626 26.3685 36.8782C28.369 29.9941 30.3804 23.1211 32.3809 16.237C32.4578 15.9833 32.5128 15.7185 32.6117 15.3434C31.0729 15.7075 29.644 16.0495 28.1821 16.4025C24.8956 27.4567 21.3783 38.4227 17.795 49.4107C17.5972 49.51 17.3224 49.6203 16.9926 49.6976C16.7838 49.7307 16.2891 49.8299 15.6846 49.6865Z" fill="#2B2B2B"/>
</g>
</svg>
