<svg width="57" height="57" viewBox="0 0 57 57" fill="none" xmlns="http://www.w3.org/2000/svg">
<circle cx="28.5" cy="28.5" r="28.5" fill="#F4F2E5"/>
<mask id="mask0_1716_1131" style="mask-type:alpha" maskUnits="userSpaceOnUse" x="0" y="0" width="57" height="57">
<circle cx="28.5" cy="28.5" r="28.5" fill="#F4F2E5"/>
</mask>
<g mask="url(#mask0_1716_1131)">
<path d="M15.6843 49.6866C15.3546 49.6094 15.0908 49.477 14.9039 49.3667C14.9589 49.1461 14.9809 48.9696 15.0358 48.8041C16.3218 44.8215 17.6079 40.8278 18.8719 36.8342C20.8614 30.5238 22.8179 24.2134 24.7854 17.892C24.8404 17.7265 24.8733 17.55 24.9393 17.2962C24.5106 17.4066 24.1589 17.4948 23.8181 17.5941C20.7405 18.4767 17.6738 19.3924 14.7281 20.6941C13.8377 21.0803 12.9914 21.5547 12.134 22.018C11.6724 22.2607 11.3316 22.6468 11.0678 23.1102C10.7601 23.6508 10.804 24.1693 11.1668 24.6547C11.6064 25.2284 12.189 25.5042 12.4748 25.6255C13.6729 26.133 14.805 26.4971 15.7833 26.8501C16.7725 27.2031 17.421 27.4679 17.388 27.6554C17.377 27.7547 17.1902 27.8099 17.0913 27.843C16.7285 27.9533 16.3988 27.843 16.3548 27.8319C13.8817 27.3245 11.5295 26.4971 9.51802 24.8864C9.12232 24.5664 8.77059 24.1693 8.48481 23.7611C8.03415 23.1212 8.03415 22.4372 8.45184 21.7422C8.77059 21.2237 9.18827 20.8376 9.69389 20.5176C10.925 19.7454 12.2659 19.1827 13.6069 18.6532C16.9044 17.3624 20.2898 16.3806 23.6972 15.4649C24.3128 15.2994 24.9283 15.1339 25.6318 14.9464C26.0934 13.3247 26.588 11.6698 27.0167 10.004C27.4564 8.33814 27.8301 6.65022 28.2588 4.86301C28.4566 4.75269 28.7754 4.62031 29.1821 4.55411C29.3469 4.53205 29.6657 4.49895 30.0614 4.55411C30.512 4.62031 30.8638 4.78579 31.0836 4.90714C31.0286 5.3043 31.0067 5.66836 30.9187 6.02139C30.3801 8.19472 29.8196 10.3681 29.27 12.5414C29.1381 13.0489 28.9952 13.5563 28.8303 14.1521C30.3252 13.8322 31.7211 13.5233 33.172 13.2144C33.5897 11.3609 33.9964 9.50755 34.4361 7.57692C35.3154 7.17976 36.2497 7.20183 37.2609 7.62105C37.2279 7.94098 37.2389 8.22782 37.173 8.51465C36.9312 9.662 36.6674 10.8093 36.4145 11.9567C36.3706 12.1442 36.3376 12.3428 36.2826 12.6076C36.6014 12.5524 37.184 12.4531 37.8984 12.3428C42.6908 11.5485 47.593 10.7873 53.0119 10.1584C54.9245 9.9378 55.7049 9.90471 56.7271 9.87161C58.156 9.82748 60.2444 9.91574 62.8714 10.6108C63.0253 11.019 63.1792 11.4161 63.3331 11.8243C62.9264 11.714 62.2559 11.5595 61.4205 11.4161C58.2659 10.8976 56.0346 11.2727 47.9997 12.5524C45.9113 12.8834 44.988 13.0268 43.5151 13.2805C41.3388 13.6556 39.1625 14.0528 36.9861 14.45C36.5794 14.5272 36.1727 14.6154 35.766 14.6927C35.7111 14.8692 35.6561 15.0126 35.6231 15.145C34.3371 19.613 33.0401 24.07 31.7651 28.549C30.622 32.5537 29.4898 36.5694 28.4016 40.5961C28.1049 41.7104 27.984 42.8688 27.8081 44.0051C27.7312 44.5126 27.7861 45.02 27.984 45.6047C28.2368 45.4282 28.4676 45.2848 28.6545 45.1193C29.5997 44.2809 30.567 43.4535 31.4683 42.5709C33.0401 41.0264 34.5899 39.4598 36.0958 37.8602C36.6234 37.3086 37.2279 37.0769 37.9314 36.9997C38.2611 36.9666 38.5909 36.9666 38.9206 36.9997C39.1295 37.0217 39.3163 37.1321 39.5691 37.2203C39.4702 37.3858 39.4263 37.5071 39.3493 37.5954C36.8982 40.0997 34.535 42.6923 31.864 44.9759C30.9517 45.7482 29.9954 46.4432 28.8083 46.7631C27.94 46.9948 27.0607 46.9838 26.1923 46.9176C25.5218 46.8624 25.0492 46.4542 24.8843 45.7702C24.6975 45.02 24.7304 44.2699 24.8294 43.5197C25.1371 41.2581 25.7417 39.0627 26.3682 36.8783C28.3687 29.9943 30.3801 23.1212 32.3806 16.2372C32.4576 15.9834 32.5125 15.7186 32.6114 15.3436C31.0726 15.7076 29.6437 16.0496 28.1818 16.4026C24.8953 27.4569 21.378 38.4228 17.7947 49.4108C17.5969 49.5101 17.3221 49.6204 16.9923 49.6977C16.7835 49.7308 16.2889 49.8301 15.6843 49.6866Z" fill="#262626"/>
</g>
</svg>
