<svg width="57" height="57" viewBox="0 0 57 57" fill="none" xmlns="http://www.w3.org/2000/svg">
<circle cx="28.5" cy="28.5" r="28.5" fill="#EE4816"/>
<mask id="mask0_1716_1121" style="mask-type:alpha" maskUnits="userSpaceOnUse" x="0" y="0" width="57" height="57">
<circle cx="28.5" cy="28.5" r="28.5" fill="#F4F2E5"/>
</mask>
<g mask="url(#mask0_1716_1121)">
<path d="M15.6843 49.6866C15.3546 49.6094 15.0908 49.477 14.9039 49.3666C14.9589 49.146 14.9809 48.9695 15.0358 48.804C16.3218 44.8214 17.6079 40.8278 18.8719 36.8341C20.8614 30.5237 22.8179 24.2133 24.7854 17.8919C24.8404 17.7264 24.8733 17.5499 24.9393 17.2962C24.5106 17.4065 24.1589 17.4948 23.8181 17.5941C20.7405 18.4766 17.6738 19.3923 14.7281 20.6941C13.8377 21.0802 12.9914 21.5546 12.134 22.0179C11.6724 22.2607 11.3316 22.6468 11.0678 23.1101C10.7601 23.6507 10.804 24.1692 11.1668 24.6546C11.6064 25.2283 12.189 25.5041 12.4748 25.6255C13.6729 26.1329 14.805 26.497 15.7833 26.85C16.7725 27.2031 17.421 27.4678 17.388 27.6554C17.377 27.7547 17.1902 27.8098 17.0913 27.8429C16.7285 27.9532 16.3988 27.8429 16.3548 27.8319C13.8817 27.3244 11.5295 26.497 9.51802 24.8863C9.12232 24.5664 8.77059 24.1692 8.48481 23.761C8.03415 23.1212 8.03415 22.4372 8.45184 21.7421C8.77059 21.2236 9.18827 20.8375 9.69389 20.5176C10.925 19.7453 12.2659 19.1827 13.6069 18.6531C16.9044 17.3624 20.2898 16.3805 23.6972 15.4648C24.3128 15.2994 24.9283 15.1339 25.6318 14.9463C26.0934 13.3246 26.588 11.6698 27.0167 10.0039C27.4564 8.33808 27.8301 6.65016 28.2588 4.86295C28.4566 4.75263 28.7754 4.62024 29.1821 4.55405C29.3469 4.53199 29.6657 4.49889 30.0614 4.55405C30.512 4.62024 30.8638 4.78573 31.0836 4.90708C31.0286 5.30424 31.0067 5.6683 30.9187 6.02133C30.3801 8.19466 29.8196 10.368 29.27 12.5413C29.1381 13.0488 28.9952 13.5563 28.8303 14.152C30.3252 13.8321 31.7211 13.5232 33.172 13.2143C33.5897 11.3609 33.9964 9.50749 34.4361 7.57686C35.3154 7.1797 36.2497 7.20177 37.2609 7.62099C37.2279 7.94092 37.2389 8.22776 37.173 8.51459C36.9312 9.66194 36.6674 10.8093 36.4145 11.9566C36.3706 12.1442 36.3376 12.3427 36.2826 12.6075C36.6014 12.5524 37.184 12.4531 37.8984 12.3428C42.6908 11.5484 47.593 10.7872 53.0119 10.1584C54.9245 9.93774 55.7049 9.90464 56.7271 9.87155C58.156 9.82742 60.2444 9.91568 62.8714 10.6107C63.0253 11.0189 63.1792 11.416 63.3331 11.8242C62.9264 11.7139 62.2559 11.5595 61.4205 11.416C58.2659 10.8975 56.0346 11.2726 47.9997 12.5524C45.9113 12.8833 44.988 13.0267 43.5151 13.2805C41.3388 13.6556 39.1625 14.0527 36.9861 14.4499C36.5794 14.5271 36.1727 14.6154 35.766 14.6926C35.7111 14.8691 35.6561 15.0125 35.6231 15.1449C34.3371 19.6129 33.0401 24.0699 31.7651 28.549C30.622 32.5536 29.4898 36.5694 28.4016 40.5961C28.1049 41.7103 27.984 42.8687 27.8081 44.005C27.7312 44.5125 27.7861 45.02 27.984 45.6047C28.2368 45.4282 28.4676 45.2848 28.6545 45.1193C29.5997 44.2808 30.567 43.4534 31.4683 42.5708C33.0401 41.0263 34.5899 39.4598 36.0958 37.8601C36.6234 37.3085 37.2279 37.0768 37.9314 36.9996C38.2611 36.9665 38.5909 36.9665 38.9206 36.9996C39.1295 37.0217 39.3163 37.132 39.5691 37.2202C39.4702 37.3857 39.4263 37.5071 39.3493 37.5953C36.8982 40.0996 34.535 42.6922 31.864 44.9759C30.9517 45.7481 29.9954 46.4431 28.8083 46.7631C27.94 46.9947 27.0607 46.9837 26.1923 46.9175C25.5218 46.8624 25.0492 46.4542 24.8843 45.7702C24.6975 45.02 24.7304 44.2698 24.8294 43.5196C25.1371 41.258 25.7417 39.0626 26.3682 36.8783C28.3687 29.9942 30.3801 23.1212 32.3806 16.2371C32.4576 15.9834 32.5125 15.7186 32.6114 15.3435C31.0726 15.7076 29.6437 16.0496 28.1818 16.4026C24.8953 27.4568 21.378 38.4228 17.7947 49.4108C17.5969 49.5101 17.3221 49.6204 16.9923 49.6976C16.7835 49.7307 16.2889 49.83 15.6843 49.6866Z" fill="#F4F2E5"/>
</g>
</svg>
