<svg width="220" height="220" viewBox="0 0 220 220" fill="none" xmlns="http://www.w3.org/2000/svg">
<g clip-path="url(#clip0_2041_1093)">
<path d="M220 110C220 170.751 170.751 220 110 220C49.2487 220 0 170.751 0 110C0 49.2487 49.2487 0 110 0C170.751 0 220 49.2487 220 110ZM11.6434 110C11.6434 164.321 55.6791 208.357 110 208.357C164.321 208.357 208.357 164.321 208.357 110C208.357 55.6791 164.321 11.6434 110 11.6434C55.6791 11.6434 11.6434 55.6791 11.6434 110Z" fill="#262626"/>
<path fill-rule="evenodd" clip-rule="evenodd" d="M11.6434 110C11.6434 164.321 55.6791 208.357 110 208.357C164.321 208.357 208.357 164.321 208.357 110C208.357 55.6791 164.321 11.6434 110 11.6434C55.6791 11.6434 11.6434 55.6791 11.6434 110ZM110.682 146.443C110.057 145.979 109.41 145.549 108.711 145.063L108.7 145.074C104.151 149.463 99.6761 153.771 95.2016 158.079C93.7979 159.431 92.3026 160.577 89.9479 160.308C90.1656 156.899 90.3604 153.565 90.5953 150.23C90.9505 145.171 91.4433 140.118 91.6438 135.054C91.7183 133.152 92.4057 131.92 93.7693 130.694C108.72 117.253 123.629 103.77 138.541 90.2861L141.19 87.8912C142.06 87.1005 142.857 86.224 143.882 85.1927C141.882 83.9215 140.495 84.7897 139.166 85.6217L139.11 85.6568C133.054 89.438 127.021 93.2479 120.977 97.0521C106.78 105.995 92.5719 114.916 78.4036 123.905C77.0688 124.747 75.9401 124.907 74.4276 124.42C66.2807 121.791 58.0938 119.293 49.9354 116.715C47.8328 116.05 45.2661 115.477 45.1458 112.813C45.0313 110.223 47.4203 109.129 49.4599 108.316C57.9391 104.93 66.4641 101.67 74.9833 98.3813C101.67 88.0802 128.356 77.7906 155.043 67.501C155.776 67.2203 156.509 66.9453 157.266 66.7391C161.133 65.6849 164.158 67.5641 164.318 71.5687C164.427 74.2271 163.889 76.9542 163.333 79.5896C157.684 106.402 151.966 133.197 146.271 159.998C146.254 160.067 146.254 160.142 146.237 160.21C144.742 166.959 140.622 168.489 135.008 164.364C126.89 158.4 118.789 152.413 110.682 146.443Z" fill="#262626"/>
</g>
<defs>
<clipPath id="clip0_2041_1093">
<rect width="220" height="220" fill="white"/>
</clipPath>
</defs>
</svg>
