<svg width="220" height="220" viewBox="0 0 220 220" fill="none" xmlns="http://www.w3.org/2000/svg">
<g clip-path="url(#clip0_2041_1092)">
<path d="M220 110C220 170.751 170.751 220 110 220C49.2487 220 0 170.751 0 110C0 49.2487 49.2487 0 110 0C170.751 0 220 49.2487 220 110ZM11.6434 110C11.6434 164.321 55.6791 208.357 110 208.357C164.321 208.357 208.357 164.321 208.357 110C208.357 55.6791 164.321 11.6434 110 11.6434C55.6791 11.6434 11.6434 55.6791 11.6434 110Z" fill="#262626"/>
<path fill-rule="evenodd" clip-rule="evenodd" d="M11.6434 110C11.6434 164.321 55.6791 208.357 110 208.357C164.321 208.357 208.357 164.321 208.357 110C208.357 55.6791 164.321 11.6434 110 11.6434C55.6791 11.6434 11.6434 55.6791 11.6434 110ZM122.209 80.9302C122.392 84.8547 122.249 88.7849 122.249 92.7151L122.255 92.7094C122.249 97.35 122.146 101.991 122.301 106.626C122.364 108.407 122.392 110.647 124.455 111.415C126.689 112.24 127.726 110.126 128.923 108.82C135.758 101.349 140.634 92.6693 144.438 83.3422C144.816 82.4141 145.183 81.4859 145.567 80.5635C146.386 78.5984 147.824 77.401 149.984 77.3953C158.056 77.3667 166.134 77.2063 174.195 77.4813C178.612 77.6302 179.856 79.624 178.125 83.7604C176.487 87.6792 174.407 91.4776 172.03 94.9953C168.117 100.793 163.808 106.322 159.672 111.971C155.352 117.872 155.444 119.207 160.577 124.311C166.404 130.104 172.471 135.672 176.968 142.651L177.04 142.763C177.441 143.385 177.846 144.014 178.16 144.679C179.993 148.603 178.131 152.092 173.817 152.694C172.196 152.917 170.54 153.009 168.901 152.997C163.757 152.957 158.612 152.826 153.467 152.757C149.25 152.705 145.653 151.17 142.719 148.191C139.763 145.183 136.933 142.055 133.999 139.03C132.859 137.855 131.673 136.692 130.367 135.713C127.526 133.576 124.919 134.458 124.042 137.935C123.292 140.903 122.747 143.934 122.289 146.965C121.768 150.448 120.324 152.075 116.783 152.39C99.2578 153.948 84.5969 148.059 72.938 134.991C63.7542 124.69 56.7646 112.876 50.5542 100.61C47.6552 94.8865 45.0026 89.0312 42.2984 83.2047C41.8917 82.3281 41.6052 81.2969 41.6224 80.3401C41.651 78.4495 42.6422 77.2063 44.6646 77.2063C51.4536 77.212 58.2427 77.1948 65.0318 77.3323C68.2573 77.401 70.5146 79.0911 71.7234 82.1505C75.3729 91.363 80.1224 99.9625 86.2297 107.783C87.2667 109.118 88.5328 110.338 89.8906 111.341C91.5979 112.595 93.099 112.063 93.6547 109.994C94.2391 107.8 94.8234 105.526 94.8635 103.28C94.9609 97.7854 94.8807 92.2797 94.5885 86.7969C94.4109 83.5484 92.4115 81.4974 89.2089 80.638C86.5104 79.9161 86.0464 78.4266 88.2521 76.7651C89.8276 75.5792 91.913 74.4448 93.7979 74.399C101.286 74.2214 108.785 74.3016 116.268 74.6453C120.164 74.8229 122.026 76.9943 122.209 80.9302Z" fill="#262626"/>
</g>
<defs>
<clipPath id="clip0_2041_1092">
<rect width="220" height="220" fill="white"/>
</clipPath>
</defs>
</svg>
