<svg width="220" height="220" viewBox="0 0 220 220" fill="none" xmlns="http://www.w3.org/2000/svg">
<g clip-path="url(#clip0_2041_1066)">
<path d="M131.249 109.782C119.768 116.835 108.671 123.653 97.287 130.654V88.9339C108.659 95.912 119.757 102.724 131.249 109.782Z" fill="#262626"/>
<path fill-rule="evenodd" clip-rule="evenodd" d="M220 110C220 170.751 170.751 220 110 220C49.2487 220 0 170.751 0 110C0 49.2487 49.2487 0 110 0C170.751 0 220 49.2487 220 110ZM110 220C55.6791 220 0 164.321 0 110C0 55.6791 55.6791 0 110 0C164.321 0 220 55.6791 220 110C220 164.321 164.321 220 110 220Z" fill="#262626"/>
<path fill-rule="evenodd" clip-rule="evenodd" d="M0 110C0 164.321 55.6791 220 110 220C164.321 220 220 164.321 220 110C220 55.6791 164.321 0 110 0C55.6791 0 0 55.6791 0 110ZM133.467 149.136C125.698 149.617 117.912 149.806 107.336 150.236L107.324 150.242C98.0489 149.623 86.0005 148.924 73.975 147.961C69.2312 147.583 65.1062 145.441 61.6 142.158C58.724 139.459 57.6583 136.01 57.0682 132.252C54.6677 116.955 54.7193 101.698 57.2458 86.4016C58.6437 77.9281 64.2182 73.7917 71.7807 72.1245C77.1776 70.9328 82.8151 70.7495 88.3667 70.3656C105.073 69.2141 121.785 69.4031 138.462 70.8125C142.845 71.1792 147.343 71.6375 151.491 72.9724C158.211 75.138 162.33 79.8073 163.413 87.1865C165.687 102.724 165.768 118.181 163.052 133.667C161.625 141.826 156.034 145.744 148.764 147.44C143.802 148.597 138.589 148.821 133.467 149.136Z" fill="#262626"/>
<path fill-rule="evenodd" clip-rule="evenodd" d="M131.249 109.782C119.768 116.835 108.671 123.653 97.287 130.654V88.9339C108.659 95.912 119.757 102.724 131.249 109.782Z" fill="#262626"/>
</g>
<defs>
<clipPath id="clip0_2041_1066">
<rect width="220" height="220" fill="white"/>
</clipPath>
</defs>
</svg>
